<svg xmlns="http://www.w3.org/2000/svg" version="1.1" xmlns:xlink="http://www.w3.org/1999/xlink" xmlns:svgjs="http://svgjs.dev/svgjs" width="308" height="304" viewBox="0 0 1000 1125"><g transform="matrix(1,0,0,1,0,0)"><svg viewBox="0 0 320 360" data-background-color="#7fdbff" preserveAspectRatio="xMidYMid meet" height="1125" width="1000" xmlns="http://www.w3.org/2000/svg" xmlns:xlink="http://www.w3.org/1999/xlink"><g id="tight-bounds" transform="matrix(1,0,0,1,0,0)"><svg viewBox="0 0 320 360" height="360" width="320"><g><svg></svg></g><g><svg viewBox="0 0 320 360" height="360" width="320"><g><path d="M160 340c88.258 0 160-71.742 160-160 0-88.258-71.742-160-160-160-88.258 0-160 71.742-160 160 0 88.258 71.742 160 160 160zM165.161 329.368v-10.323c72.671-2.684 131.2-61.213 133.884-133.884h10.323c-2.684 78.452-65.755 141.523-144.207 144.207zM165.161 30.632c78.452 2.684 141.523 65.755 144.207 144.207h-10.323c-2.684-72.671-61.213-131.2-133.884-133.884zM289.032 180c0 71.123-57.91 129.032-129.032 129.032-71.123 0-129.032-57.91-129.032-129.032 0-71.123 57.91-129.032 129.032-129.032 71.123 0 129.032 57.91 129.032 129.032zM154.839 30.632v10.323c-72.671 2.684-131.2 61.213-133.884 133.884h-10.323c2.684-78.452 65.755-141.523 144.207-144.207zM20.955 185.161c2.684 72.671 61.213 131.2 133.884 133.884v10.323c-78.452-2.684-141.523-65.755-144.207-144.207z" fill="#ffffff" fill-rule="nonzero" stroke="none" stroke-width="1" stroke-linecap="butt" stroke-linejoin="miter" stroke-miterlimit="10" stroke-dasharray="" stroke-dashoffset="0" font-family="none" font-weight="none" font-size="none" text-anchor="none" style="mix-blend-mode: normal" data-fill-palette-color="tertiary"></path></g><g transform="matrix(1,0,0,1,88.63636363636364,90)"><svg viewBox="0 0 142.72727272727272 180" height="180" width="142.72727272727272"><g><svg viewBox="0 0 142.72727272727272 180" height="180" width="142.72727272727272"><g><svg viewBox="0 0 142.72727272727272 180" height="180" width="142.72727272727272"><g><svg viewBox="0 0 142.72727272727272 180" height="180" width="142.72727272727272"><g id="textblocktransform"><svg viewBox="0 0 142.72727272727272 180" height="180" width="142.72727272727272" id="textblock"><g><svg viewBox="0 0 142.72727272727272 180" height="180" width="142.72727272727272"><g transform="matrix(1,0,0,1,0,0)"><svg width="142.72727272727272" viewBox="2.95 -34.65 27.48 34.65" height="180" data-palette-color="#0074d9"><path d="M11.15-34.65L11.15 0 2.95 0 2.95-34.65 11.15-34.65ZM20.93 0L11.4-18.5 20.88-34.65 29.48-34.65 19.68-19.1 30.43 0 20.93 0Z" opacity="1" transform="matrix(1,0,0,1,0,0)" fill="#ffffff" class="undefined-text-0" data-fill-palette-color="primary" id="text-0"></path></svg></g></svg></g></svg></g></svg></g></svg></g></svg></g></svg></g></svg></g><defs></defs></svg><rect width="308" height="304" fill="none" stroke="none" visibility="hidden"></rect></g></svg></g></svg>